<?xml version="1.0" encoding="UTF-8"?>
<svg width="100" height="28" viewBox="0 0 100 28" fill="none" xmlns="http://www.w3.org/2000/svg">
    <!-- Background -->
    <rect width="100" height="28" rx="14" fill="url(#ssl-gradient)"/>
    
    <!-- Lock Icon -->
    <g transform="translate(12, 6) scale(0.65)">
        <path d="M25 14h2v-2c0-2.76-2.24-5-5-5s-5 2.24-5 5v2h2v-2c0-1.66 1.34-3 3-3s3 1.34 3 3v2zm-10 2c-1.1 0-2 .9-2 2v12c0 1.1.9 2 2 2h14c1.1 0 2-.9 2-2V18c0-1.1-.9-2-2-2H15zm7 11c-1.66 0-3-1.34-3-3s1.34-3 3-3 3 1.34 3 3-1.34 3-3 3z" fill="white"/>
    </g>
    
    <!-- Text -->
    <text x="35" y="18" font-family="Arial, sans-serif" font-size="11" font-weight="600" fill="white">SSL Secure</text>
    
    <!-- Gradient Definition -->
    <defs>
        <linearGradient id="ssl-gradient" x1="0" y1="0" x2="100" y2="28" gradientUnits="userSpaceOnUse">
            <stop offset="0%" style="stop-color:#4E73DF"/>
            <stop offset="100%" style="stop-color:#3d62d1"/>
        </linearGradient>
    </defs>
</svg> 